<?xml version="1.0" encoding="UTF-8"?>
<svg version="1.1" xmlns="http://www.w3.org/2000/svg" viewBox="211.2 194.9 368.2 382.4" width="368.2" height="382.4">
<path d="M0 0 C2.32594343 1.66621888 4.61623522 3.37574246 6.89599609 5.10449219 C8.8130365 6.55270519 10.74736361 7.97524756 12.68554688 9.39501953 C21.33015455 15.75749214 29.61421165 22.43569934 37.71289062 29.47705078 C38.41414062 30.07775391 39.11539063 30.67845703 39.83789062 31.29736328 C53.54728482 43.12171577 67.06619122 55.58766089 78.71289062 69.47705078 C79.51855469 70.41677734 80.32421875 71.35650391 81.15429688 72.32470703 C83.53368169 75.10310036 85.89016991 77.89980175 88.23486328 80.70751953 C89.21113536 81.87633685 90.18993316 83.04304969 91.17138672 84.20751953 C111.03498183 107.86573251 127.12747228 132.57915627 124.71289062 164.47705078 C122.71656485 182.27408271 111.30764418 198.62448782 100.71289062 212.47705078 C100.00447021 213.41073486 100.00447021 213.41073486 99.28173828 214.36328125 C86.4488812 231.20837406 72.39723313 246.85344822 57.46289062 261.85205078 C56.71837646 262.60123779 55.9738623 263.3504248 55.20678711 264.12231445 C50.53726788 268.77834246 45.721563 273.18983068 40.71289062 277.47705078 C39.74867188 278.32267578 38.78445313 279.16830078 37.79101562 280.03955078 C12.40867148 301.91604629 -16.72900137 326.68948313 -52.05419922 324.6796875 C-80.39958259 322.10734241 -108.04260196 296.37455895 -128.28710938 278.47705078 C-129.13273437 277.73197266 -129.97835937 276.98689453 -130.84960938 276.21923828 C-133.34796989 273.99208137 -135.82004291 271.7388285 -138.28710938 269.47705078 C-138.83447754 268.98011719 -139.3818457 268.48318359 -139.94580078 267.97119141 C-149.55520948 259.2358397 -158.5763121 250.10700196 -167.28710938 240.47705078 C-167.93808594 239.76419922 -168.5890625 239.05134766 -169.25976562 238.31689453 C-170.97451599 236.39991316 -172.63675792 234.44992415 -174.28710938 232.47705078 C-174.72812988 231.95127441 -175.16915039 231.42549805 -175.62353516 230.88378906 C-197.52215125 204.66912909 -217.05833184 180.04993673 -214.61230469 144.36474609 C-213.83626451 137.47360253 -211.52697267 131.55863748 -208.28710938 125.47705078 C-207.82087158 124.58711426 -207.82087158 124.58711426 -207.34521484 123.67919922 C-197.30996287 104.98518974 -183.91453649 87.6926849 -169.64892578 72.07348633 C-168.18472873 70.46383824 -166.7285755 68.84678424 -165.28540039 67.21826172 C-159.79886776 61.03166706 -154.07806311 55.11268094 -148.22094727 49.28051758 C-146.71904013 47.78400153 -145.22259875 46.28216779 -143.7265625 44.77978516 C-138.41785619 39.46708651 -133.02660589 34.32313895 -127.28710938 29.47705078 C-126.34867187 28.66880859 -125.41023438 27.86056641 -124.44335938 27.02783203 C-87.59266878 -4.02429402 -45.66229912 -31.66693343 0 0 Z " fill="#364048" transform="translate(440.287109375,238.52294921875)"/>
<path d="M0 0 C2.98087575 2.45094228 4.86351998 4.79527998 7 8 C6.92738188 12.50232328 6.78789634 14.92320834 4.125 18.5625 C1.46906791 20.63412703 -1.12890807 22.32142968 -4 24.0625 C-17.42128788 32.38297496 -28.01766632 44.82453715 -37.70703125 57.10546875 C-40.58697233 60.74096507 -43.51056517 64.33980053 -46.4375 67.9375 C-47.00380127 68.63383545 -47.57010254 69.3301709 -48.15356445 70.04760742 C-51.94840243 74.71181027 -55.74522817 79.37436196 -59.55859375 84.0234375 C-61.49159725 86.38015536 -63.42036137 88.74018251 -65.34765625 91.1015625 C-84.57335029 114.61173605 -84.57335029 114.61173605 -90.125 115.5 C-101.35936596 114.05040439 -110.62402279 98.00158236 -117.3125 89.625 C-118.26962891 88.42810547 -118.26962891 88.42810547 -119.24609375 87.20703125 C-120.33345237 85.83875148 -121.41100127 84.4625368 -122.47265625 83.07421875 C-129.54242888 74.1926938 -139.66607684 68.06087998 -150.9765625 66.62109375 C-163.34174339 66.12584749 -172.78837499 71.06319809 -182 79 C-186.84251606 83.80269274 -191.08219211 89.08510375 -195.375 94.375 C-216.19810651 119.89776597 -216.19810651 119.89776597 -230.63671875 121.37109375 C-237.82354868 121.59383156 -244.64463502 121.6349506 -251.01171875 117.87890625 C-255.01819096 114.09282937 -256.44924349 109.16693108 -258 104 C-258.24363281 103.29488281 -258.48726562 102.58976562 -258.73828125 101.86328125 C-260.53348375 96.03803233 -260.18103461 90.03448693 -260 84 C-259.57460938 84.86625 -259.57460938 84.86625 -259.140625 85.75 C-254.75367002 94.48651483 -254.75367002 94.48651483 -247 100 C-240.49430012 100.81533576 -233.77669284 101.03505942 -228.01171875 97.56640625 C-219.54793475 90.9761589 -213.04971051 82.7266605 -206.546875 74.29296875 C-197.41599217 62.45325735 -187.16722244 53.36115256 -173 48 C-172.12730469 47.63261719 -171.25460937 47.26523437 -170.35546875 46.88671875 C-165.61159797 45.63309981 -161.07239504 45.71057919 -156.1875 45.75 C-155.24068359 45.74226563 -154.29386719 45.73453125 -153.31835938 45.7265625 C-136.09193512 45.77398555 -122.69070607 52.28691163 -110.4375 64.25 C-105.27108066 69.56256981 -100.59775321 75.19522139 -96 81 C-94.98368575 82.23290581 -93.96377314 83.46287155 -92.9375 84.6875 C-91.9784375 85.8321875 -91.9784375 85.8321875 -91 87 C-83.4920236 79.73421639 -76.77526023 71.84368604 -70.37304688 63.60253906 C-65.1827944 56.92269131 -59.83725522 50.37233595 -54.48535156 43.82177734 C-53.14945103 42.18330105 -51.82038316 40.53925952 -50.4921875 38.89453125 C-38.45702068 24.02879384 -26.07154226 12.3052677 -10 2 C-6.24952518 -0.50031654 -4.44143734 -0.53603554 0 0 Z " fill="#82A69E" transform="translate(486,309)"/>
<path d="M0 0 C1.18203003 -0.01571045 1.18203003 -0.01571045 2.38793945 -0.03173828 C9.76615505 0.08071808 17.47424353 1.78518567 23.375 6.4375 C29.9473375 16.33016601 34.82966265 29.50715204 34.375 41.4375 C32.18378748 39.24628748 31.38972659 37.43690878 30.125 34.625 C26.84199125 28.0305171 22.96413776 24.91084397 16.1875 22.125 C6.28809928 18.84306066 -2.31139521 19.89605516 -11.625 24.4375 C-18.77126659 28.23551581 -24.44306444 32.63604503 -30.0625 38.4375 C-30.79549316 39.18298096 -31.52848633 39.92846191 -32.28369141 40.6965332 C-38.10916372 46.70969668 -43.34975485 53.02372205 -48.34667969 59.73144531 C-50.56229803 62.6884241 -52.84348861 65.59374129 -55.125 68.5 C-55.5792334 69.08031982 -56.0334668 69.66063965 -56.50146484 70.25854492 C-60.06163444 74.78247888 -63.75517741 79.1794771 -67.5065918 83.54541016 C-70.31234091 86.82813166 -72.98512769 90.18082811 -75.59765625 93.61889648 C-88.73502561 110.83775541 -104.23806287 126.12463486 -126.625 129.4375 C-144.31696723 130.50920804 -160.41492599 127.69764479 -174.15209961 115.64941406 C-184.30880915 106.39225726 -193.14264029 95.96500197 -201.42236328 85.02539062 C-202.48824015 83.61806964 -203.56921403 82.22221103 -204.65234375 80.828125 C-208.32667436 75.8137444 -209.55917695 72.66534632 -208.625 66.4375 C-207.38770374 63.59171861 -206.3268305 62.00936189 -203.9375 60.0625 C-200.20957265 59.05495207 -197.18776014 59.03458163 -193.625 60.4375 C-190.47860275 63.05949771 -188.09924467 66.18862992 -185.625 69.4375 C-184.85285156 70.44941406 -184.08070313 71.46132813 -183.28515625 72.50390625 C-182.03852709 74.14012257 -180.79232171 75.77661444 -179.54956055 77.41577148 C-169.55821417 90.47348657 -158.46173887 104.07015223 -141.625 107.4375 C-128.09003431 108.39118322 -116.98489776 105.56294557 -106.53515625 96.65625 C-101.56854969 91.85683613 -97.26486311 86.49093352 -92.95996094 81.10205078 C-90.90968596 78.54558136 -88.83673309 76.00768216 -86.76660156 73.46728516 C-84.04724321 70.12847411 -81.33568256 66.78335599 -78.625 63.4375 C-77.57699219 62.14392578 -77.57699219 62.14392578 -76.5078125 60.82421875 C-73.40995129 56.97515943 -70.35670221 53.09550518 -67.34375 49.1796875 C-61.04099785 40.99583512 -54.7626588 32.92052938 -47.625 25.4375 C-46.82320312 24.54933594 -46.02140625 23.66117187 -45.1953125 22.74609375 C-33.08396504 9.82612516 -17.99771416 0.2257311 0 0 Z " fill="#82A69E" transform="translate(530.625,347.5625)"/>
<path d="M0 0 C6.27 0 12.54 0 19 0 C19 0.33 19 0.66 19 1 C16.69 1.33 14.38 1.66 12 2 C16.95 2.33 21.9 2.66 27 3 C27 3.33 27 3.66 27 4 C23.99975053 4.05444001 21.00050961 4.0938836 18 4.125 C17.16082031 4.14175781 16.32164062 4.15851562 15.45703125 4.17578125 C9.94745123 4.21849117 5.28951708 3.55502007 0 2 C0 1.34 0 0.68 0 0 Z " fill="#4C5357" transform="translate(378,559)"/>
<path d="M0 0 C0.66 0 1.32 0 2 0 C2.50904657 1.87256417 3.00682455 3.74819341 3.5 5.625 C3.7784375 6.66914063 4.056875 7.71328125 4.34375 8.7890625 C4.99118596 11.95687418 5.1161292 14.77741467 5 18 C1.70694457 14.70694457 0.30504897 10.42229031 -1 6 C-0.75 2.375 -0.75 2.375 0 0 Z " fill="#8AA09B" transform="translate(560,371)"/>
<path d="M0 0 C0.99 0.33 1.98 0.66 3 1 C0.36 4.3 -2.28 7.6 -5 11 C-5.99 10.34 -6.98 9.68 -8 9 C-5.36 6.03 -2.72 3.06 0 0 Z " fill="#444C50" transform="translate(269,312)"/>
<path d="M0 0 C2.3125 0.125 2.3125 0.125 5 1 C6.8125 4.0625 6.8125 4.0625 8 7 C7.1646875 6.566875 7.1646875 6.566875 6.3125 6.125 C3.91505355 4.9586747 1.48403061 3.9660119 -1 3 C-0.67 2.01 -0.34 1.02 0 0 Z " fill="#435053" transform="translate(545,347)"/>
<path d="M0 0 C0.66 0.99 1.32 1.98 2 3 C1.54625 3.598125 1.0925 4.19625 0.625 4.8125 C-0.63295913 6.50590652 -1.82984724 8.24477086 -3 10 C-3 5.66905042 -2.03435531 3.72965139 0 0 Z " fill="#3F474A" transform="translate(237,355)"/>
</svg>
