<?xml version="1.0" encoding="UTF-8"?>
<svg version="1.1" xmlns="http://www.w3.org/2000/svg" viewBox="223 207 966 382" width="966" height="382">
<path d="M0 0 C2.32594343 1.66621888 4.61623522 3.37574246 6.89599609 5.10449219 C8.8130365 6.55270519 10.74736361 7.97524756 12.68554688 9.39501953 C21.33015455 15.75749214 29.61421165 22.43569934 37.71289062 29.47705078 C38.41414062 30.07775391 39.11539063 30.67845703 39.83789062 31.29736328 C53.54728482 43.12171577 67.06619122 55.58766089 78.71289062 69.47705078 C79.51855469 70.41677734 80.32421875 71.35650391 81.15429688 72.32470703 C83.53368169 75.10310036 85.89016991 77.89980175 88.23486328 80.70751953 C89.21113536 81.87633685 90.18993316 83.04304969 91.17138672 84.20751953 C111.03498183 107.86573251 127.12747228 132.57915627 124.71289062 164.47705078 C122.71656485 182.27408271 111.30764418 198.62448782 100.71289062 212.47705078 C100.00447021 213.41073486 100.00447021 213.41073486 99.28173828 214.36328125 C86.4488812 231.20837406 72.39723313 246.85344822 57.46289062 261.85205078 C56.71837646 262.60123779 55.9738623 263.3504248 55.20678711 264.12231445 C50.53726788 268.77834246 45.721563 273.18983068 40.71289062 277.47705078 C39.74867188 278.32267578 38.78445313 279.16830078 37.79101562 280.03955078 C12.40867148 301.91604629 -16.72900137 326.68948313 -52.05419922 324.6796875 C-80.39958259 322.10734241 -108.04260196 296.37455895 -128.28710938 278.47705078 C-129.13273437 277.73197266 -129.97835937 276.98689453 -130.84960938 276.21923828 C-133.34796989 273.99208137 -135.82004291 271.7388285 -138.28710938 269.47705078 C-138.83447754 268.98011719 -139.3818457 268.48318359 -139.94580078 267.97119141 C-149.55520948 259.2358397 -158.5763121 250.10700196 -167.28710938 240.47705078 C-167.93808594 239.76419922 -168.5890625 239.05134766 -169.25976562 238.31689453 C-170.97451599 236.39991316 -172.63675792 234.44992415 -174.28710938 232.47705078 C-174.72812988 231.95127441 -175.16915039 231.42549805 -175.62353516 230.88378906 C-197.52215125 204.66912909 -217.05833184 180.04993673 -214.61230469 144.36474609 C-213.83626451 137.47360253 -211.52697267 131.55863748 -208.28710938 125.47705078 C-207.82087158 124.58711426 -207.82087158 124.58711426 -207.34521484 123.67919922 C-197.30996287 104.98518974 -183.91453649 87.6926849 -169.64892578 72.07348633 C-168.18472873 70.46383824 -166.7285755 68.84678424 -165.28540039 67.21826172 C-159.79886776 61.03166706 -154.07806311 55.11268094 -148.22094727 49.28051758 C-146.71904013 47.78400153 -145.22259875 46.28216779 -143.7265625 44.77978516 C-138.41785619 39.46708651 -133.02660589 34.32313895 -127.28710938 29.47705078 C-126.34867187 28.66880859 -125.41023438 27.86056641 -124.44335938 27.02783203 C-87.59266878 -4.02429402 -45.66229912 -31.66693343 0 0 Z " fill="#364048" transform="translate(440.287109375,238.52294921875)"/>
<path d="M0 0 C2.98087575 2.45094228 4.86351998 4.79527998 7 8 C6.92738188 12.50232328 6.78789634 14.92320834 4.125 18.5625 C1.46906791 20.63412703 -1.12890807 22.32142968 -4 24.0625 C-17.42128788 32.38297496 -28.01766632 44.82453715 -37.70703125 57.10546875 C-40.58697233 60.74096507 -43.51056517 64.33980053 -46.4375 67.9375 C-47.00380127 68.63383545 -47.57010254 69.3301709 -48.15356445 70.04760742 C-51.94840243 74.71181027 -55.74522817 79.37436196 -59.55859375 84.0234375 C-61.49159725 86.38015536 -63.42036137 88.74018251 -65.34765625 91.1015625 C-84.57335029 114.61173605 -84.57335029 114.61173605 -90.125 115.5 C-101.35936596 114.05040439 -110.62402279 98.00158236 -117.3125 89.625 C-118.26962891 88.42810547 -118.26962891 88.42810547 -119.24609375 87.20703125 C-120.33345237 85.83875148 -121.41100127 84.4625368 -122.47265625 83.07421875 C-129.54242888 74.1926938 -139.66607684 68.06087998 -150.9765625 66.62109375 C-163.34174339 66.12584749 -172.78837499 71.06319809 -182 79 C-186.84251606 83.80269274 -191.08219211 89.08510375 -195.375 94.375 C-216.19810651 119.89776597 -216.19810651 119.89776597 -230.63671875 121.37109375 C-237.82354868 121.59383156 -244.64463502 121.6349506 -251.01171875 117.87890625 C-255.01819096 114.09282937 -256.44924349 109.16693108 -258 104 C-258.24363281 103.29488281 -258.48726562 102.58976562 -258.73828125 101.86328125 C-260.53348375 96.03803233 -260.18103461 90.03448693 -260 84 C-259.57460938 84.86625 -259.57460938 84.86625 -259.140625 85.75 C-254.75367002 94.48651483 -254.75367002 94.48651483 -247 100 C-240.49430012 100.81533576 -233.77669284 101.03505942 -228.01171875 97.56640625 C-219.54793475 90.9761589 -213.04971051 82.7266605 -206.546875 74.29296875 C-197.41599217 62.45325735 -187.16722244 53.36115256 -173 48 C-172.12730469 47.63261719 -171.25460937 47.26523437 -170.35546875 46.88671875 C-165.61159797 45.63309981 -161.07239504 45.71057919 -156.1875 45.75 C-155.24068359 45.74226563 -154.29386719 45.73453125 -153.31835938 45.7265625 C-136.09193512 45.77398555 -122.69070607 52.28691163 -110.4375 64.25 C-105.27108066 69.56256981 -100.59775321 75.19522139 -96 81 C-94.98368575 82.23290581 -93.96377314 83.46287155 -92.9375 84.6875 C-91.9784375 85.8321875 -91.9784375 85.8321875 -91 87 C-83.4920236 79.73421639 -76.77526023 71.84368604 -70.37304688 63.60253906 C-65.1827944 56.92269131 -59.83725522 50.37233595 -54.48535156 43.82177734 C-53.14945103 42.18330105 -51.82038316 40.53925952 -50.4921875 38.89453125 C-38.45702068 24.02879384 -26.07154226 12.3052677 -10 2 C-6.24952518 -0.50031654 -4.44143734 -0.53603554 0 0 Z " fill="#82A69E" transform="translate(486,309)"/>
<path d="M0 0 C1.18203003 -0.01571045 1.18203003 -0.01571045 2.38793945 -0.03173828 C9.76615505 0.08071808 17.47424353 1.78518567 23.375 6.4375 C29.9473375 16.33016601 34.82966265 29.50715204 34.375 41.4375 C32.18378748 39.24628748 31.38972659 37.43690878 30.125 34.625 C26.84199125 28.0305171 22.96413776 24.91084397 16.1875 22.125 C6.28809928 18.84306066 -2.31139521 19.89605516 -11.625 24.4375 C-18.77126659 28.23551581 -24.44306444 32.63604503 -30.0625 38.4375 C-30.79549316 39.18298096 -31.52848633 39.92846191 -32.28369141 40.6965332 C-38.10916372 46.70969668 -43.34975485 53.02372205 -48.34667969 59.73144531 C-50.56229803 62.6884241 -52.84348861 65.59374129 -55.125 68.5 C-55.5792334 69.08031982 -56.0334668 69.66063965 -56.50146484 70.25854492 C-60.06163444 74.78247888 -63.75517741 79.1794771 -67.5065918 83.54541016 C-70.31234091 86.82813166 -72.98512769 90.18082811 -75.59765625 93.61889648 C-88.73502561 110.83775541 -104.23806287 126.12463486 -126.625 129.4375 C-144.31696723 130.50920804 -160.41492599 127.69764479 -174.15209961 115.64941406 C-184.30880915 106.39225726 -193.14264029 95.96500197 -201.42236328 85.02539062 C-202.48824015 83.61806964 -203.56921403 82.22221103 -204.65234375 80.828125 C-208.32667436 75.8137444 -209.55917695 72.66534632 -208.625 66.4375 C-207.38770374 63.59171861 -206.3268305 62.00936189 -203.9375 60.0625 C-200.20957265 59.05495207 -197.18776014 59.03458163 -193.625 60.4375 C-190.47860275 63.05949771 -188.09924467 66.18862992 -185.625 69.4375 C-184.85285156 70.44941406 -184.08070313 71.46132813 -183.28515625 72.50390625 C-182.03852709 74.14012257 -180.79232171 75.77661444 -179.54956055 77.41577148 C-169.55821417 90.47348657 -158.46173887 104.07015223 -141.625 107.4375 C-128.09003431 108.39118322 -116.98489776 105.56294557 -106.53515625 96.65625 C-101.56854969 91.85683613 -97.26486311 86.49093352 -92.95996094 81.10205078 C-90.90968596 78.54558136 -88.83673309 76.00768216 -86.76660156 73.46728516 C-84.04724321 70.12847411 -81.33568256 66.78335599 -78.625 63.4375 C-77.57699219 62.14392578 -77.57699219 62.14392578 -76.5078125 60.82421875 C-73.40995129 56.97515943 -70.35670221 53.09550518 -67.34375 49.1796875 C-61.04099785 40.99583512 -54.7626588 32.92052938 -47.625 25.4375 C-46.82320312 24.54933594 -46.02140625 23.66117187 -45.1953125 22.74609375 C-33.08396504 9.82612516 -17.99771416 0.2257311 0 0 Z " fill="#82A69E" transform="translate(530.625,347.5625)"/>
<path d="M0 0 C0.7014917 0.00281982 1.4029834 0.00563965 2.12573242 0.00854492 C9.85227032 0.25008341 13.88103579 3.19405617 19.0625 8.5 C19.35125 7.71625 19.64 6.9325 19.9375 6.125 C21.0625 3.5 21.0625 3.5 23.0625 1.5 C25.12109375 1.19921875 25.12109375 1.19921875 27.5 1.1875 C28.67369141 1.16236328 28.67369141 1.16236328 29.87109375 1.13671875 C32.66309509 1.59956389 33.36591355 2.25118976 35.0625 4.5 C35.44345093 7.11167908 35.44345093 7.11167908 35.45068359 10.28491211 C35.46014008 11.47301987 35.46959656 12.66112762 35.4793396 13.88523865 C35.47326691 15.16963333 35.46719421 16.45402802 35.4609375 17.77734375 C35.46380768 19.09537491 35.46667786 20.41340607 35.46963501 21.77137756 C35.47405746 24.56147809 35.46763132 27.35129041 35.45361328 30.14135742 C35.43653753 33.71374735 35.44635205 37.2854603 35.46433067 40.85782528 C35.47779518 44.26855198 35.46835944 47.67909783 35.4609375 51.08984375 C35.46701019 52.3722142 35.47308289 53.65458466 35.4793396 54.97581482 C35.46515488 56.7627047 35.46515488 56.7627047 35.45068359 58.58569336 C35.44829681 59.63365585 35.44591003 60.68161835 35.44345093 61.76133728 C35.01003927 64.87714109 34.2345133 66.25643411 32.0625 68.5 C29.01424301 69.25101984 26.13931362 69.07869307 23.0625 68.5 C21 66.6875 21 66.6875 20.0625 64.5 C20.0625 63.51 20.0625 62.52 20.0625 61.5 C19.4025 61.5 18.7425 61.5 18.0625 61.5 C17.7325 62.49 17.4025 63.48 17.0625 64.5 C15.3203125 65.6328125 15.3203125 65.6328125 13.1875 66.625 C12.48882813 66.95757812 11.79015625 67.29015625 11.0703125 67.6328125 C3.71200508 70.81091415 -4.9067302 70.62728862 -12.375 67.8125 C-20.51249743 64.01324837 -25.09124839 58.4937157 -28.9375 50.5 C-32.60905899 39.88906834 -32.76748878 28.10523634 -28 17.875 C-21.73274146 6.94844621 -13.00705243 -0.1168718 0 0 Z " fill="#394147" transform="translate(1085.9375,371.5)"/>
<path d="M0 0 C2.12757231 1.51384953 3.92676334 3.1749739 5.625 5.15625 C8.45314777 3.79290522 11.10251056 2.27988871 13.75 0.59375 C20.4868578 -3.68987467 26.80060959 -3.4176464 34.625 -2.84375 C40.54320347 -1.28398252 44.25765702 2.05713062 47.625 7.15625 C50.56367863 13.71879249 51.06889075 19.87909382 51.0234375 26.9921875 C51.02630768 27.99335602 51.02917786 28.99452454 51.03213501 30.02603149 C51.0341637 32.1252703 51.02871819 34.22452853 51.01611328 36.32373047 C50.99994063 39.54306753 51.01605497 42.76116851 51.03515625 45.98046875 C51.0331756 48.02604444 51.02933561 50.07161936 51.0234375 52.1171875 C51.02951019 53.079664 51.03558289 54.0421405 51.0418396 55.03378296 C51.02765488 56.37130112 51.02765488 56.37130112 51.01318359 57.73583984 C51.01079681 58.51921722 51.00841003 59.3025946 51.00595093 60.10971069 C50.52715285 62.6819031 49.66986357 63.57086367 47.625 65.15625 C45.46875 65.5546875 45.46875 65.5546875 43.125 65.53125 C41.96484375 65.54285156 41.96484375 65.54285156 40.78125 65.5546875 C38.08293868 65.05608649 37.32985098 64.27296501 35.625 62.15625 C35.34136198 59.09817785 35.23191302 56.23370312 35.25390625 53.17578125 C35.23651309 51.35351385 35.21892883 49.53124827 35.20117188 47.70898438 C35.19113062 44.84330738 35.18749461 41.97775434 35.18920898 39.11206055 C35.18561708 36.34126272 35.15818243 33.5714096 35.12890625 30.80078125 C35.13708878 29.95465775 35.1452713 29.10853424 35.15370178 28.23677063 C35.08246023 22.48264786 33.95871241 17.9341539 30.625 13.15625 C26.92278834 11.30514417 22.66593083 11.69170205 18.625 12.15625 C14.9618027 14.29311509 13.24938149 16.30516671 11.625 20.15625 C11.33003418 22.13583159 11.33003418 22.13583159 11.36962891 24.20288086 C11.35919052 25.3794651 11.35919052 25.3794651 11.34854126 26.57981873 C11.34953827 27.41843948 11.35053528 28.25706024 11.3515625 29.12109375 C11.3312761 30.90820942 11.31042537 32.69531875 11.2890625 34.48242188 C11.26645572 37.29131428 11.24998708 40.09995631 11.24414062 42.90893555 C11.23461144 45.62594495 11.20083422 48.34183546 11.1640625 51.05859375 C11.16910797 51.89519028 11.17415344 52.7317868 11.17935181 53.59373474 C11.11127955 57.63571251 10.93388321 59.66977277 8.71630859 63.16235352 C6.18961798 65.57135215 5.22621701 66.09090032 1.75 66.46875 C-1.375 66.15625 -1.375 66.15625 -3.54101562 64.70410156 C-6.25564677 60.93281687 -5.90409098 57.6149718 -5.84375 53.078125 C-5.85079956 52.19272034 -5.85784912 51.30731567 -5.8651123 50.39508057 C-5.89455041 46.61561003 -5.8780296 42.83665641 -5.86572266 39.05712891 C-5.86332863 36.29298613 -5.88433752 33.52966538 -5.90625 30.765625 C-5.89493042 29.92263855 -5.88361084 29.0796521 -5.87194824 28.21112061 C-5.91952606 22.56892649 -6.87976079 17.73918927 -10.375 13.15625 C-14.43171355 11.80401215 -18.13334954 11.61206637 -22.375 12.15625 C-25.99630943 14.31362583 -27.76370133 16.31936133 -29.375 20.15625 C-29.66996582 22.13583159 -29.66996582 22.13583159 -29.63037109 24.20288086 C-29.64080948 25.3794651 -29.64080948 25.3794651 -29.65145874 26.57981873 C-29.65046173 27.41843948 -29.64946472 28.25706024 -29.6484375 29.12109375 C-29.6687239 30.90820942 -29.68957463 32.69531875 -29.7109375 34.48242188 C-29.73354428 37.29131428 -29.75001292 40.09995631 -29.75585938 42.90893555 C-29.76538856 45.62594495 -29.79916578 48.34183546 -29.8359375 51.05859375 C-29.83089203 51.89519028 -29.82584656 52.7317868 -29.82064819 53.59373474 C-29.88764499 57.5718541 -30.08738265 59.68212535 -32.19384766 63.15454102 C-35.25544429 65.96426016 -37.25201146 66.30091626 -41.375 66.15625 C-44.02746548 64.5131682 -44.95665776 63.83467646 -46.375 61.15625 C-47.11589655 56.65653962 -47.02716823 52.19928195 -46.96875 47.6484375 C-46.96879028 46.33086456 -46.96883057 45.01329163 -46.96887207 43.65579224 C-46.96722207 40.87322515 -46.94858114 38.09146692 -46.91699219 35.30908203 C-46.87723669 31.74331941 -46.87295743 28.17861131 -46.88045502 24.61266899 C-46.88426148 21.20779655 -46.86345319 17.8032577 -46.84375 14.3984375 C-46.84354858 13.11717987 -46.84334717 11.83592224 -46.84313965 10.51583862 C-46.82722778 9.33095856 -46.81131592 8.14607849 -46.79492188 6.92529297 C-46.78650269 5.88114227 -46.7780835 4.83699158 -46.76940918 3.76119995 C-46.375 1.15625 -46.375 1.15625 -45.09484863 -0.67697144 C-42.11498715 -2.69856708 -38.786084 -2.47645106 -35.375 -1.84375 C-32.40641843 0.36365681 -31.54634209 1.64222373 -30.375 5.15625 C-29.694375 4.393125 -29.01375 3.63 -28.3125 2.84375 C-20.4558799 -4.34422159 -9.27901937 -5.4127613 0 0 Z " fill="#3A4148" transform="translate(846.375,374.84375)"/>
<path d="M0 0 C1.1919397 0.01522705 1.1919397 0.01522705 2.40795898 0.03076172 C12.48777324 0.29653505 20.34757722 2.86035948 28.1875 9.375 C31.35123663 12.84739386 32.43890814 15.39728411 32.6875 20 C32.53079679 23.0975001 32.26517676 24.25250973 30.5625 26.9375 C27.41851795 28.84043651 25.80603729 29.0396293 22.1875 28.375 C19.33343165 26.05192111 17.52001534 24.00980201 15.8125 20.75 C13.51536944 17.39265534 11.04503944 16.22931027 7.1875 15.375 C-1.54665008 14.40596068 -1.54665008 14.40596068 -9.5625 17.3125 C-12.72314284 20.20975593 -13.03952281 20.81340663 -13.25 25.125 C-13.34087891 26.41664063 -13.34087891 26.41664063 -13.43359375 27.734375 C-12.70812552 30.81875565 -11.55351582 32.27131618 -9.03051758 34.16943359 C-3.30888065 37.27933378 3.2720179 38.63251059 9.5234375 40.35180664 C21.07722941 43.56360999 28.76572694 47.06124327 35.1875 57.375 C37.30074325 63.71472976 37.12833746 71.00180887 34.5625 77.1875 C29.86909147 86.24610666 24.11659554 90.25746588 14.6875 93.625 C2.6689169 96.2614876 -10.15272475 95.10338012 -20.625 88.5625 C-25.32498452 85.21604459 -29.98946461 81.00983666 -31.8125 75.375 C-32.23737984 72.60753942 -32.35362994 70.13138065 -31.8125 67.375 C-29.75 64.8125 -29.75 64.8125 -26.8125 63.375 C-23.25 63.3125 -23.25 63.3125 -19.8125 64.375 C-17.8125 66.4375 -17.8125 66.4375 -15.8125 69.375 C-11.72436485 74.75033136 -8.82863555 78.40725717 -1.8125 79.375 C4.18393997 79.94970401 9.92444891 79.56617125 15.1875 76.375 C17.93946624 73.45816942 18.63891933 71.3586148 18.6875 67.375 C18.7184375 66.529375 18.749375 65.68375 18.78125 64.8125 C17.90107176 61.19913669 16.31793434 60.32796876 13.1875 58.375 C10.34587537 57.16514268 7.44821334 56.22688316 4.5 55.3125 C3.6963501 55.05210937 2.8927002 54.79171875 2.06469727 54.5234375 C-2.05719413 53.19736877 -6.19082889 51.99033899 -10.375 50.875 C-17.42037045 48.80641109 -23.81893218 44.6049658 -27.8125 38.375 C-30.88694796 32.03465494 -30.61397791 25.22334249 -29.8125 18.375 C-26.7471305 10.38475378 -19.99042531 5.51491297 -12.609375 1.734375 C-8.42013628 0.00239865 -4.48595973 -0.08269488 0 0 Z " fill="#3A4248" transform="translate(939.8125,346.625)"/>
<path d="M0 0 C7.14791407 6.28185017 11.42358493 13.25310881 12.23828125 22.7890625 C12.26277344 23.72492188 12.28726562 24.66078125 12.3125 25.625 C12.36857422 27.03652344 12.36857422 27.03652344 12.42578125 28.4765625 C12 31 12 31 10.25421143 32.63642883 C7.72365766 34.16715932 6.43236178 34.36579622 3.50683594 34.34057617 C2.18591949 34.34023628 2.18591949 34.34023628 0.83831787 34.33988953 C-0.10348328 34.32440567 -1.04528442 34.30892181 -2.015625 34.29296875 C-2.98659119 34.28872391 -3.95755737 34.28447906 -4.95794678 34.28010559 C-8.05558131 34.26332853 -11.15256249 34.22567772 -14.25 34.1875 C-16.3515531 34.17245192 -18.4531164 34.15876373 -20.5546875 34.14648438 C-25.70337629 34.11342811 -30.85157741 34.06165208 -36 34 C-35.40559667 35.60651079 -34.79906336 37.20853672 -34.1875 38.80859375 C-33.85105469 39.70118896 -33.51460937 40.59378418 -33.16796875 41.51342773 C-31.41029537 45.25546439 -29.45697415 46.76737086 -26 49 C-20.6982287 50.67709092 -15.15350213 50.79108241 -9.9375 48.875 C-7.44557087 47.28440694 -5.28636676 45.60848338 -3 43.75 C-0.16215762 41.56871389 0.61834453 41.01440209 4.3125 40.875 C7.43694495 42.18290719 8.58350203 42.91703384 10 46 C9.89584374 50.89534399 8.47470168 53.61216586 5 57 C-4.76919763 63.537993 -14.37266721 64.97503839 -26 64 C-34.99173903 61.87862457 -42.42691928 56.91762954 -47.375 49.125 C-52.57774301 39.58192518 -53.7691675 28.79704957 -51.34765625 18.125 C-47.96865091 8.84361194 -41.95827147 1.28126227 -33 -3 C-22.35320332 -7.4716546 -9.67999855 -6.05175018 0 0 Z " fill="#3B4349" transform="translate(1035,377)"/>
<path d="M0 0 C0.92468582 -0.00960754 1.84937164 -0.01921509 2.80207825 -0.02911377 C3.80413803 -0.03336365 4.80619781 -0.03761353 5.83862305 -0.04199219 C7.38141182 -0.0505423 7.38141182 -0.0505423 8.95536804 -0.05926514 C11.13511117 -0.06872338 13.31486865 -0.07525238 15.49462891 -0.07910156 C18.82634531 -0.08879735 22.1574424 -0.11980935 25.48901367 -0.15136719 C27.60554646 -0.15789812 29.72208367 -0.16314824 31.83862305 -0.16699219 C32.83461014 -0.17933899 33.83059723 -0.19168579 34.85676575 -0.20440674 C43.78411656 -0.17572603 43.78411656 -0.17572603 47.5378418 3.16113281 C48.6628418 6.53613281 48.6628418 6.53613281 48.5378418 10.16113281 C46.56822921 12.87349493 44.9972164 14.83245194 41.61630249 15.59390259 C39.30689792 15.73981916 37.04988374 15.72352123 34.73706055 15.64941406 C33.90068558 15.64233932 33.06431061 15.63526459 32.20259094 15.62797546 C29.54258128 15.60008266 26.88471041 15.53735762 24.2253418 15.47363281 C22.41742958 15.44854315 20.60948423 15.42573115 18.80151367 15.40527344 C14.37881171 15.3545311 9.96070769 15.256682 5.5378418 15.16113281 C5.5378418 23.08113281 5.5378418 31.00113281 5.5378418 39.16113281 C7.87362305 39.12632812 10.2094043 39.09152344 12.6159668 39.05566406 C14.88304421 39.03225491 17.15010806 39.01404614 19.41723633 38.99633789 C20.99054001 38.98126917 22.56380182 38.96081036 24.13696289 38.93481445 C26.40090276 38.89834543 28.66428636 38.88138773 30.9284668 38.86816406 C31.62965637 38.85268021 32.33084595 38.83719635 33.05328369 38.82124329 C36.17733385 38.82017135 38.24439092 38.99340892 40.98242188 40.55834961 C42.5378418 42.16113281 42.5378418 42.16113281 43.03393555 44.09863281 C43.01459961 44.77925781 42.99526367 45.45988281 42.9753418 46.16113281 C42.97405273 46.84175781 42.97276367 47.52238281 42.97143555 48.22363281 C42.380671 50.86344558 41.75561354 51.57697059 39.5378418 53.16113281 C36.87949552 53.42267404 34.46099075 53.51052404 31.80737305 53.45410156 C31.05695236 53.44985672 30.30653168 53.44561188 29.53337097 53.4412384 C27.13866154 53.42445732 24.74479646 53.38680771 22.3503418 53.34863281 C20.726005 53.33358517 19.101655 53.3198969 17.47729492 53.30761719 C13.49715232 53.27455586 9.51764017 53.22277875 5.5378418 53.16113281 C5.55355225 54.20043945 5.5692627 55.23974609 5.58544922 56.31054688 C5.63981022 60.17195871 5.67421413 64.03333681 5.70263672 67.89501953 C5.71770934 69.56532482 5.738171 71.23559062 5.76416016 72.90576172 C5.80061152 75.30869294 5.81758311 77.71110025 5.83081055 80.11425781 C5.8462944 80.85919495 5.86177826 81.60413208 5.87773132 82.37164307 C5.87877058 85.58411581 5.7398008 87.80119319 4.15209961 90.63085938 C2.06796987 92.60655889 0.94317194 92.69948465 -1.8996582 92.66113281 C-2.66149414 92.67144531 -3.42333008 92.68175781 -4.20825195 92.69238281 C-7.40907468 91.93794279 -8.45835843 90.76793149 -10.4621582 88.16113281 C-10.85691889 85.394025 -11.00981144 83.02448489 -10.97973633 80.2590332 C-10.98674561 79.46668777 -10.99375488 78.67434235 -11.00097656 77.85798645 C-11.01856799 75.24122978 -11.00692913 72.62555656 -10.9934082 70.00878906 C-10.99610307 68.18802178 -10.99998544 66.36725589 -11.00500488 64.54649353 C-11.0109017 60.73080745 -11.00233217 56.91549603 -10.98364258 53.09985352 C-10.96086901 48.21258447 -10.97396466 43.32619484 -10.99793243 38.43895817 C-11.01239935 34.67880144 -11.00778006 30.91885255 -10.99742126 27.1586895 C-10.9947556 25.35698785 -10.9980181 23.55526724 -11.00733948 21.75358772 C-11.01751815 19.23276065 -11.00198603 16.71334883 -10.97973633 14.19262695 C-10.98783325 13.45012695 -10.99593018 12.70762695 -11.00427246 11.94262695 C-10.92485617 7.07699655 -9.92860623 4.57437491 -6.4621582 1.16113281 C-4.09668293 -0.02160482 -2.63872619 0.02209544 0 0 Z " fill="#3A4349" transform="translate(625.462158203125,347.8388671875)"/>
<path d="M0 0 C0.66 -0.02191406 1.32 -0.04382813 2 -0.06640625 C5.20585013 0.94168334 6.2078645 2.76894786 8 5.5625 C8.38724879 8.42652168 8.5480541 10.90254936 8.51757812 13.76171875 C8.5245874 14.57371735 8.53159668 15.38571594 8.53881836 16.22232056 C8.55638138 18.8985646 8.54478201 21.57374575 8.53125 24.25 C8.53394541 26.11417849 8.53782824 27.97835561 8.54284668 29.8425293 C8.54873942 33.74639289 8.54018602 37.64988999 8.52148438 41.55371094 C8.49869492 46.55416537 8.51181921 51.55376102 8.53577423 56.55418396 C8.55023828 60.40269423 8.54562344 64.25100138 8.53526306 68.09951782 C8.53259745 69.94308575 8.53585971 71.78667221 8.54518127 73.63021851 C8.55535697 76.20840196 8.53983245 78.78520076 8.51757812 81.36328125 C8.52567505 82.12291168 8.53377197 82.88254211 8.54211426 83.66519165 C8.46385938 88.56639266 7.52846162 91.14127331 4 94.5625 C2 95.2265625 2 95.2265625 0 95.1875 C-0.66 95.20039063 -1.32 95.21328125 -2 95.2265625 C-5.19028078 94.16728958 -6.20582807 92.36348945 -8 89.5625 C-8.38728083 86.66416465 -8.54798508 84.14932528 -8.51757812 81.25561523 C-8.5245874 80.43225677 -8.53159668 79.60889832 -8.53881836 78.7605896 C-8.55638123 76.04707827 -8.54478308 73.33461512 -8.53125 70.62109375 C-8.53394515 68.73209941 -8.53782777 66.84310642 -8.54284668 64.95411682 C-8.54873918 60.99898037 -8.54018579 57.04420568 -8.52148438 53.08911133 C-8.49867933 48.01906052 -8.51182926 42.94985595 -8.53577423 37.87983608 C-8.55022558 33.98075478 -8.54562954 30.08187428 -8.53526306 26.18278694 C-8.53259475 24.31327273 -8.53586921 22.44374029 -8.54518127 20.57424736 C-8.55533776 17.96233659 -8.53985996 15.35179869 -8.51757812 12.73999023 C-8.52567505 11.96741379 -8.53377197 11.19483734 -8.54211426 10.39884949 C-8.48618237 6.86085774 -8.28240376 4.9290533 -6.09265137 2.08680725 C-3.83768635 0.44426918 -2.75952294 -0.00538969 0 0 Z " fill="#3D454C" transform="translate(1143,345.4375)"/>
<path d="M0 0 C2.2734375 1.3125 2.2734375 1.3125 4 3 C4.71477779 7.28866671 4.50569997 9.24960649 2.0625 12.875 C-1.0348263 15.02416518 -1.88263608 15.27181617 -5.4375 15.5 C-10.34448611 15.81842339 -12.65626137 17.25819725 -16 21 C-18.79845847 26.40882243 -19.43087761 31.54513289 -19.40625 37.55078125 C-19.41708618 38.33140427 -19.42792236 39.11202728 -19.43908691 39.91630554 C-19.48461259 43.22157275 -19.49649797 46.52675051 -19.51123047 49.83227539 C-19.52688886 52.25956302 -19.55985073 54.68619109 -19.59375 57.11328125 C-19.59072876 57.86015701 -19.58770752 58.60703278 -19.58459473 59.37654114 C-19.65942703 64.51801989 -19.65942703 64.51801989 -21.390625 66.96801758 C-23.51962712 68.33320143 -24.9828498 68.4001715 -27.5 68.375 C-28.66015625 68.38660156 -28.66015625 68.38660156 -29.84375 68.3984375 C-32.5959188 67.88988457 -33.32078575 67.22774061 -35 65 C-35.38095093 62.34362793 -35.38095093 62.34362793 -35.38818359 59.10742188 C-35.39764008 57.89606567 -35.40709656 56.68470947 -35.4168396 55.43664551 C-35.41076691 54.12723999 -35.40469421 52.81783447 -35.3984375 51.46875 C-35.40045851 50.11258793 -35.40337018 48.75642691 -35.40713501 47.40026855 C-35.41155716 44.55889533 -35.40513123 41.71780515 -35.39111328 38.87646484 C-35.37402097 35.23447897 -35.3838628 31.5931563 -35.40183067 27.95119476 C-35.41267175 25.15105188 -35.40922079 22.3510662 -35.4014473 19.55091858 C-35.39847298 17.5550595 -35.4075834 15.55919432 -35.4168396 13.56335449 C-35.40738312 12.35199829 -35.39792664 11.14064209 -35.38818359 9.89257812 C-35.38579681 8.82463013 -35.38341003 7.75668213 -35.38095093 6.65637207 C-35 4 -35 4 -33.61709595 2.15002441 C-31.42763923 0.59295621 -29.96899951 0.69700002 -27.3125 0.8125 C-26.10013672 0.85310547 -26.10013672 0.85310547 -24.86328125 0.89453125 C-24.24839844 0.92933594 -23.63351562 0.96414063 -23 1 C-21.68 3.31 -20.36 5.62 -19 8 C-18.443125 7.236875 -17.88625 6.47375 -17.3125 5.6875 C-12.41427958 -0.00502644 -7.34068066 -1.21747874 0 0 Z " fill="#384046" transform="translate(788,372)"/>
<path d="M0 0 C3.44870855 2.65383892 5.57883654 5.54370233 7.1015625 9.6171875 C7.62098809 14.14361053 7.63919109 15.81074462 5.1015625 19.6171875 C1.47465659 20.11176558 -0.4652905 19.84819923 -3.7109375 18.1171875 C-8.80164439 15.72156073 -13.09937539 15.73124582 -18.453125 17.42578125 C-26.74437078 21.06737704 -31.89198945 27.30083719 -35.32495117 35.62792969 C-36.41020452 39.39235893 -36.20799823 43.17065255 -36.0859375 47.0546875 C-36.07240234 47.88162109 -36.05886719 48.70855469 -36.04492188 49.56054688 C-36.00990742 51.5797139 -35.95611312 53.59854068 -35.8984375 55.6171875 C-43.28056735 48.50801035 -46.42064609 42.11457741 -46.6484375 31.8671875 C-46.55118977 21.69317179 -43.44204595 13.89470003 -36.74609375 6.1171875 C-26.5002679 -3.67847026 -12.89507251 -7.43461835 0 0 Z " fill="#3A4247" transform="translate(720.8984375,375.3828125)"/>
<path d="M0 0 C4.5794893 4.13270985 8.18632074 8.16843338 8.93359375 14.4140625 C9.08479859 22.43681338 8.56336947 28.79737235 3.5625 35.3125 C-0.10461261 38.97008764 -3.93603438 39.57888422 -9 39.8125 C-14.69300627 39.57886089 -17.82557659 37.97549454 -21.8359375 33.88671875 C-26.74954692 28.39086082 -27.95642836 23.42907043 -27.8203125 16.234375 C-27.01083654 10.05592582 -24.23512013 5.06731965 -19.8125 0.75 C-13.81255923 -2.8815431 -6.23554268 -3.06108459 0 0 Z " fill="#FBFBFB" transform="translate(1097.4375,387.6875)"/>
<path d="M0 0 C5.90804846 4.92337372 8.51236925 10.74431347 9.38671875 18.375 C9.76015622 30.11896453 6.85773956 38.89355116 -0.79296875 47.8359375 C-7.14047298 54.059862 -15.19275499 56.90046515 -24 57.3125 C-30.47288107 57.12174712 -36.47503935 54.65424524 -41 50 C-43.92082331 44.76266164 -44.40260066 40.83770959 -44 35 C-43 34 -43 34 -40.1875 33.8125 C-37 34 -37 34 -35.1875 34.984375 C-29.90092876 37.4388545 -22.79367431 36.92571456 -17.359375 35.125 C-7.08747495 29.8143578 -3.50486846 21.51460538 0 11 C0.0685495 9.10529184 0.08480372 7.2083166 0.0625 5.3125 C0.05347656 4.31863281 0.04445313 3.32476562 0.03515625 2.30078125 C0.02355469 1.54152344 0.01195312 0.78226562 0 0 Z " fill="#394147" transform="translate(734,384)"/>
<path d="M0 0 C1.12350861 0.01061211 1.12350861 0.01061211 2.26971436 0.0214386 C4.65479737 0.04935987 7.03750556 0.1120859 9.421875 0.17578125 C11.04163268 0.20086743 12.66142728 0.22368005 14.28125 0.24414062 C18.24570239 0.299178 22.20838653 0.38542803 26.171875 0.48828125 C26.171875 0.81828125 26.171875 1.14828125 26.171875 1.48828125 C31.451875 1.81828125 36.731875 2.14828125 42.171875 2.48828125 C42.171875 2.81828125 42.171875 3.14828125 42.171875 3.48828125 C25.671875 3.81828125 9.171875 4.14828125 -7.828125 4.48828125 C-7.828125 31.87828125 -7.828125 59.26828125 -7.828125 87.48828125 C-9.148125 87.48828125 -10.468125 87.48828125 -11.828125 87.48828125 C-11.92082211 76.88323791 -11.99188861 66.27829102 -12.03537369 55.672925 C-12.05624485 50.74835712 -12.08455396 45.82406651 -12.12988281 40.8996582 C-12.17335727 36.14694177 -12.19726566 31.39449196 -12.20763397 26.64159203 C-12.21502246 24.82868439 -12.22945054 23.01579128 -12.25104523 21.20299721 C-12.28010087 18.66276184 -12.28408016 16.12362687 -12.28222656 13.58325195 C-12.29660767 12.83446777 -12.31098877 12.08568359 -12.32580566 11.31420898 C-12.29737944 7.71181036 -11.90932396 5.62191411 -10.02319336 2.51782227 C-6.90096925 -0.36895885 -4.03277463 -0.14393138 0 0 Z " fill="#373E44" transform="translate(626.828125,348.51171875)"/>
<path d="M0 0 C4.48141313 2.12277464 7.00031308 4.44515757 9 9 C9 10.65 9 12.3 9 14 C-1.56 14 -12.12 14 -23 14 C-20.74728682 6.11550388 -20.74728682 6.11550388 -17.5 3.625 C-16.58734375 2.90183594 -16.58734375 2.90183594 -15.65625 2.1640625 C-10.97071612 -1.12907216 -5.52168718 -0.5196882 0 0 Z " fill="#F8F9F9" transform="translate(1022,385)"/>
<path d="M0 0 C0.75042068 0.00424484 1.50084137 0.00848969 2.27400208 0.01286316 C4.66871151 0.02964425 7.06257659 0.06729385 9.45703125 0.10546875 C11.08136805 0.1205164 12.70571805 0.13420466 14.33007812 0.14648438 C18.31022073 0.1795457 22.28973288 0.23132281 26.26953125 0.29296875 C26.26953125 0.62296875 26.26953125 0.95296875 26.26953125 1.29296875 C31.54953125 1.62296875 36.82953125 1.95296875 42.26953125 2.29296875 C42.26953125 2.62296875 42.26953125 2.95296875 42.26953125 3.29296875 C25.76953125 3.62296875 9.26953125 3.95296875 -7.73046875 4.29296875 C-7.73046875 31.68296875 -7.73046875 59.07296875 -7.73046875 87.29296875 C-8.06046875 87.29296875 -8.39046875 87.29296875 -8.73046875 87.29296875 C-8.74077621 86.2996051 -8.75108368 85.30624146 -8.76170349 84.28277588 C-8.8594298 74.92449322 -8.96216322 65.56627716 -9.06980801 56.20810318 C-9.12498895 51.39689662 -9.17840127 46.58568392 -9.2277832 41.77441406 C-9.27549793 37.13190186 -9.32784335 32.48946291 -9.3834095 27.84703827 C-9.40380083 26.07523166 -9.42251921 24.30340498 -9.43954277 22.53156281 C-9.46365811 20.05124152 -9.49370289 17.57105801 -9.52514648 15.09082031 C-9.53090195 14.35714233 -9.53665741 13.62346436 -9.54258728 12.86755371 C-9.59102421 9.5095587 -9.87609432 6.53216939 -10.73046875 3.29296875 C-8.44781766 -0.84897143 -4.16843027 -0.08863113 0 0 Z " fill="#2F383E" transform="translate(626.73046875,348.70703125)"/>
<path d="M0 0 C0.33 0 0.66 0 1 0 C1 26.4 1 52.8 1 80 C1.66 80 2.32 80 3 80 C2.34 81.32 1.68 82.64 1 84 C0.34 84 -0.32 84 -1 84 C-1.02312312 73.19541915 -1.04091493 62.39084414 -1.05181217 51.58624363 C-1.05704107 46.5697753 -1.06413883 41.55332385 -1.07543945 36.53686523 C-1.0862681 31.69990306 -1.09227679 26.86295716 -1.09487724 22.02598381 C-1.09673153 20.17631715 -1.10035222 18.32665143 -1.10573006 16.47699165 C-1.1129402 13.89552986 -1.11399095 11.31413618 -1.11352539 8.73266602 C-1.11712067 7.96014999 -1.12071594 7.18763397 -1.12442017 6.39170837 C-1.11405216 1.11405216 -1.11405216 1.11405216 0 0 Z " fill="#303940" transform="translate(1147,355)"/>
<path d="M0 0 C6.27 0 12.54 0 19 0 C19 0.33 19 0.66 19 1 C16.69 1.33 14.38 1.66 12 2 C16.95 2.33 21.9 2.66 27 3 C27 3.33 27 3.66 27 4 C23.99975053 4.05444001 21.00050961 4.0938836 18 4.125 C17.16082031 4.14175781 16.32164062 4.15851562 15.45703125 4.17578125 C9.94745123 4.21849117 5.28951708 3.55502007 0 2 C0 1.34 0 0.68 0 0 Z " fill="#4C5357" transform="translate(378,559)"/>
<path d="M0 0 C0.99 0.33 1.98 0.66 3 1 C3 5.62 3 10.24 3 15 C2.01 15 1.02 15 0 15 C0 10.05 0 5.1 0 0 Z " fill="#454A4E" transform="translate(983,398)"/>
<path d="M0 0 C0.66 0 1.32 0 2 0 C2.50904657 1.87256417 3.00682455 3.74819341 3.5 5.625 C3.7784375 6.66914063 4.056875 7.71328125 4.34375 8.7890625 C4.99118596 11.95687418 5.1161292 14.77741467 5 18 C1.70694457 14.70694457 0.30504897 10.42229031 -1 6 C-0.75 2.375 -0.75 2.375 0 0 Z " fill="#8AA09B" transform="translate(560,371)"/>
<path d="M0 0 C0.99 0 1.98 0 3 0 C3 3.96 3 7.92 3 12 C2.01 11.67 1.02 11.34 0 11 C-1.62651522 7.74696956 -1.11453156 4.60774398 -1 1 C-0.67 0.67 -0.34 0.34 0 0 Z " fill="#33393F" transform="translate(909,413)"/>
<path d="M0 0 C0.66 0 1.32 0 2 0 C2 4.62 2 9.24 2 14 C1.01 13.67 0.02 13.34 -1 13 C-1.02708567 11.39592672 -1.04643483 9.7917215 -1.0625 8.1875 C-1.07410156 7.29417969 -1.08570313 6.40085937 -1.09765625 5.48046875 C-1 3 -1 3 0 0 Z " fill="#42494D" transform="translate(741,399)"/>
<path d="M0 0 C0.99 0.33 1.98 0.66 3 1 C0.36 4.3 -2.28 7.6 -5 11 C-5.99 10.34 -6.98 9.68 -8 9 C-5.36 6.03 -2.72 3.06 0 0 Z " fill="#444C50" transform="translate(269,312)"/>
<path d="M0 0 C0.33 0 0.66 0 1 0 C1.08096803 1.45742463 1.13917774 2.91612807 1.1875 4.375 C1.22230469 5.18710937 1.25710938 5.99921875 1.29296875 6.8359375 C1.19628906 7.55007813 1.09960938 8.26421875 1 9 C0.01 9.66 -0.98 10.32 -2 11 C-2.25 3.375 -2.25 3.375 0 0 Z " fill="#343B41" transform="translate(962,407)"/>
<path d="M0 0 C6.4 0.36923077 6.4 0.36923077 9.4375 3.5625 C9.953125 4.366875 10.46875 5.17125 11 6 C10.01 6 9.02 6 8 6 C7.54625 5.525625 7.0925 5.05125 6.625 4.5625 C4.53633317 2.55416651 2.8216552 2.38130476 0 2 C0 1.34 0 0.68 0 0 Z " fill="#4A5054" transform="translate(913,410)"/>
<path d="M0 0 C2.3125 0.125 2.3125 0.125 5 1 C6.8125 4.0625 6.8125 4.0625 8 7 C7.1646875 6.566875 7.1646875 6.566875 6.3125 6.125 C3.91505355 4.9586747 1.48403061 3.9660119 -1 3 C-0.67 2.01 -0.34 1.02 0 0 Z " fill="#435053" transform="translate(545,347)"/>
<path d="M0 0 C0.680625 0.268125 1.36125 0.53625 2.0625 0.8125 C2.0625 1.1425 2.0625 1.4725 2.0625 1.8125 C0.70125 2.2146875 0.70125 2.2146875 -0.6875 2.625 C-3.65221963 3.70826294 -5.5544754 4.79609457 -7.9375 6.8125 C-8.5975 6.1525 -9.2575 5.4925 -9.9375 4.8125 C-3.86310175 -0.24658096 -3.86310175 -0.24658096 0 0 Z " fill="#454A4E" transform="translate(1038.9375,418.1875)"/>
<path d="M0 0 C2.375 0.3125 2.375 0.3125 5 1 C7.1519437 4.22791555 7.20086443 5.28400809 7 9 C6.01 9.495 6.01 9.495 5 10 C4.9175 9.05125 4.835 8.1025 4.75 7.125 C4.34925077 3.89538209 4.34925077 3.89538209 1.9375 2.625 C1.298125 2.41875 0.65875 2.2125 0 2 C0 1.34 0 0.68 0 0 Z " fill="#494F52" transform="translate(667,349)"/>
<path d="M0 0 C0.33 0 0.66 0 1 0 C1.33 4.62 1.66 9.24 2 14 C0.68 13.01 -0.64 12.02 -2 11 C-1.34 7.37 -0.68 3.74 0 0 Z " fill="#666A6C" transform="translate(683,417)"/>
<path d="M0 0 C0.66 0 1.32 0 2 0 C2 4.29 2 8.58 2 13 C1.67 13 1.34 13 1 13 C0.83052421 11.58366664 0.66454493 10.16691467 0.5 8.75 C0.4071875 7.96109375 0.314375 7.1721875 0.21875 6.359375 C0 4 0 4 0 0 Z " fill="#565B60" transform="translate(958,405)"/>
<path d="M0 0 C0.66 0.99 1.32 1.98 2 3 C1.54625 3.598125 1.0925 4.19625 0.625 4.8125 C-0.63295913 6.50590652 -1.82984724 8.24477086 -3 10 C-3 5.66905042 -2.03435531 3.72965139 0 0 Z " fill="#3F474A" transform="translate(237,355)"/>
</svg>
